<?xml version="1.0" encoding="UTF-8"?>
<svg id="Layer_2" data-name="Layer 2" xmlns="http://www.w3.org/2000/svg" viewBox="0 0 35.2 35.2">
  <defs>
    <style>
      .cls-1 {
        fill: #463857;
      }

      .cls-1, .cls-2, .cls-3 {
        stroke-width: 0px;
      }

      .cls-2 {
        fill: #f0eafe;
      }

      .cls-3 {
        fill: #29262f;
      }
    </style>
  </defs>
  <g id="Layer_1-2" data-name="Layer 1">
    <g>
      <rect class="cls-3" width="35.2" height="35.2" rx="7.33" ry="7.33"/>
      <path class="cls-2" d="M9.46,25.16c0,1.09-.89,1.98-1.98,1.98s-1.98-.89-1.98-1.98v-15.11c0-1.09.89-1.98,1.98-1.98s1.98.89,1.98,1.98v15.11ZM20.9,25.17c0,1.09-.88,1.97-1.97,1.97s-1.97-.88-1.97-1.97v-15.13c0-1.09.88-1.97,1.97-1.97s1.97.88,1.97,1.97v15.13ZM7.76,17.36c0-.9.73-1.63,1.63-1.63h7.43c.9,0,1.63.73,1.63,1.63s-.73,1.63-1.63,1.63h-7.43c-.9,0-1.63-.73-1.63-1.63Z"/>
      <circle class="cls-1" cx="26.4" cy="23.84" r="3.3"/>
    </g>
  </g>
</svg>